<svg width="68" height="22" viewBox="0 0 68 22" fill="none" xmlns="http://www.w3.org/2000/svg">
<path d="M29.2951 11.5781C29.2951 14.7433 26.819 17.0756 23.7803 17.0756C20.7415 17.0756 18.2654 14.7433 18.2654 11.5781C18.2654 8.39062 20.7415 6.08057 23.7803 6.08057C26.819 6.08057 29.2951 8.39062 29.2951 11.5781ZM26.881 11.5781C26.881 9.60017 25.4459 8.24686 23.7803 8.24686C22.1146 8.24686 20.6795 9.60017 20.6795 11.5781C20.6795 13.5362 22.1146 14.9093 23.7803 14.9093C25.4459 14.9093 26.881 13.5337 26.881 11.5781Z" fill="#787878"/>
<path d="M41.193 11.5781C41.193 14.7433 38.7168 17.0756 35.6781 17.0756C32.6393 17.0756 30.1632 14.7433 30.1632 11.5781C30.1632 8.39309 32.6393 6.08057 35.6781 6.08057C38.7168 6.08057 41.193 8.39062 41.193 11.5781ZM38.7788 11.5781C38.7788 9.60017 37.3437 8.24686 35.6781 8.24686C34.0125 8.24686 32.5774 9.60017 32.5774 11.5781C32.5774 13.5362 34.0125 14.9093 35.6781 14.9093C37.3437 14.9093 38.7788 13.5337 38.7788 11.5781Z" fill="#787878"/>
<path d="M52.5938 6.4127V16.2825C52.5938 20.3424 50.1995 22.0006 47.3689 22.0006C44.7044 22.0006 43.1008 20.2185 42.496 18.7611L44.5978 17.8861C44.9721 18.7809 45.8892 19.8368 47.3664 19.8368C49.1783 19.8368 50.3011 18.7189 50.3011 16.6146V15.8239H50.2168C49.6765 16.4907 48.6355 17.0731 47.3218 17.0731C44.5731 17.0731 42.0548 14.6788 42.0548 11.5979C42.0548 8.49472 44.5731 6.08057 47.3218 6.08057C48.633 6.08057 49.674 6.66304 50.2168 7.30995H50.3011V6.41518H52.5938V6.4127ZM50.4721 11.5979C50.4721 9.66213 49.1808 8.24686 47.5375 8.24686C45.8718 8.24686 44.4764 9.66213 44.4764 11.5979C44.4764 13.5139 45.8718 14.9093 47.5375 14.9093C49.1808 14.9093 50.4721 13.5139 50.4721 11.5979Z" fill="#787878"/>
<path d="M56.3744 0.62793V16.7388H54.0198V0.62793H56.3744Z" fill="#787878"/>
<path d="M65.5495 13.388L67.4233 14.6372C66.8185 15.532 65.3611 17.0737 62.8428 17.0737C59.7198 17.0737 57.3875 14.6595 57.3875 11.5761C57.3875 8.30687 59.7396 6.07861 62.5727 6.07861C65.4255 6.07861 66.821 8.34901 67.277 9.57591L67.5274 10.2005L60.1784 13.2442C60.741 14.3472 61.6159 14.9098 62.8428 14.9098C64.0722 14.9098 64.9249 14.3051 65.5495 13.388ZM59.7818 11.4101L64.6943 9.37019C64.4242 8.68362 63.6112 8.20525 62.6545 8.20525C61.4276 8.20525 59.7198 9.28839 59.7818 11.4101Z" fill="#787878"/>
<path d="M9.35243 10.1483V7.81598H17.2121C17.2889 8.22247 17.3285 8.70332 17.3285 9.22382C17.3285 10.9737 16.8502 13.1375 15.3085 14.6792C13.8089 16.2407 11.893 17.0735 9.35491 17.0735C4.65054 17.0735 0.694702 13.2416 0.694702 8.53725C0.694702 3.83288 4.65054 0.000976562 9.35491 0.000976562C11.9574 0.000976562 13.8114 1.02216 15.2044 2.35316L13.5586 3.99895C12.5597 3.06204 11.2064 2.33333 9.35243 2.33333C5.9171 2.33333 3.2303 5.10192 3.2303 8.53725C3.2303 11.9726 5.9171 14.7412 9.35243 14.7412C11.5807 14.7412 12.8497 13.8464 13.6627 13.0334C14.322 12.3741 14.7558 11.4323 14.9268 10.1459L9.35243 10.1483Z" fill="#787878"/>
</svg>
